<svg xmlns="http://www.w3.org/2000/svg" width="10.715" height="20" viewBox="0 0 10.715 20">
  <g id="Facebook_Icon" data-name="Facebook Icon" transform="translate(75 -129)">
    <path id="Shape" d="M10.312,0,7.742,0C4.854,0,2.988,1.932,2.988,4.922V7.191H.4A.406.406,0,0,0,0,7.6v3.288a.406.406,0,0,0,.4.408H2.988v8.3a.406.406,0,0,0,.4.408H6.764a.406.406,0,0,0,.4-.408V11.3h3.021a.406.406,0,0,0,.4-.408V7.6a.41.41,0,0,0-.118-.288.4.4,0,0,0-.286-.12H7.168V5.268c0-.925.218-1.394,1.412-1.394h1.731a.406.406,0,0,0,.4-.408V.412A.406.406,0,0,0,10.312,0Z" transform="translate(-75 129)" fill="#9f9e9c"/>
  </g>
</svg>
