<svg xmlns="http://www.w3.org/2000/svg" width="20" height="19.956" viewBox="0 0 20 19.956">
  <g id="Instagram_Icon" data-name="Instagram Icon" transform="translate(0 -0.035)">
    <path id="Fill-1" d="M10,.035c-2.716,0-3.056.011-4.123.06A7.355,7.355,0,0,0,3.45.558,4.9,4.9,0,0,0,1.678,1.709,4.889,4.889,0,0,0,.525,3.477,7.306,7.306,0,0,0,.06,5.9C.012,6.963,0,7.3,0,10.013s.011,3.05.06,4.114a7.306,7.306,0,0,0,.465,2.422,4.889,4.889,0,0,0,1.153,1.767A4.9,4.9,0,0,0,3.45,19.467a7.355,7.355,0,0,0,2.427.464c1.067.049,1.407.06,4.123.06s3.056-.012,4.123-.06a7.356,7.356,0,0,0,2.427-.464,5.108,5.108,0,0,0,2.925-2.918,7.309,7.309,0,0,0,.465-2.422c.049-1.064.06-1.4.06-4.114s-.011-3.05-.06-4.114a7.309,7.309,0,0,0-.465-2.422,4.89,4.89,0,0,0-1.153-1.767A4.9,4.9,0,0,0,16.55.558,7.356,7.356,0,0,0,14.123.095C13.056.046,12.716.035,10,.035m0,1.8c2.67,0,2.986.01,4.041.058a5.545,5.545,0,0,1,1.857.344,3.1,3.1,0,0,1,1.15.746A3.089,3.089,0,0,1,17.8,4.128a5.512,5.512,0,0,1,.344,1.853c.048,1.052.058,1.368.058,4.032s-.01,2.98-.058,4.032A5.512,5.512,0,0,1,17.8,15.9a3.308,3.308,0,0,1-1.9,1.894,5.542,5.542,0,0,1-1.857.344c-1.054.048-1.371.058-4.041.058s-2.987-.01-4.041-.058A5.542,5.542,0,0,1,4.1,17.791a3.1,3.1,0,0,1-1.15-.746A3.092,3.092,0,0,1,2.2,15.9a5.512,5.512,0,0,1-.344-1.853c-.048-1.052-.058-1.368-.058-4.032s.01-2.98.058-4.032A5.512,5.512,0,0,1,2.2,4.128a3.092,3.092,0,0,1,.748-1.147A3.1,3.1,0,0,1,4.1,2.234a5.545,5.545,0,0,1,1.857-.344C7.014,1.843,7.33,1.832,10,1.832" transform="translate(0)" fill="#9f9e9c" fill-rule="evenodd"/>
    <path id="Fill-4" d="M10.478,13.816a3.326,3.326,0,1,1,3.333-3.326,3.33,3.33,0,0,1-3.333,3.326m0-8.45a5.124,5.124,0,1,0,5.135,5.124,5.13,5.13,0,0,0-5.135-5.124" transform="translate(-0.478 -0.477)" fill="#9f9e9c" fill-rule="evenodd"/>
    <path id="Fill-5" d="M17.927,5.026a1.2,1.2,0,1,1-1.2-1.2,1.2,1.2,0,0,1,1.2,1.2" transform="translate(-1.389 -0.339)" fill="#9f9e9c" fill-rule="evenodd"/>
  </g>
</svg>
