<svg xmlns="http://www.w3.org/2000/svg" width="20" height="16.667" viewBox="0 0 20 16.667">
  <path id="Page-1" d="M20,1.972a8.077,8.077,0,0,1-2.358.664A4.2,4.2,0,0,0,19.447.307a8.093,8.093,0,0,1-2.605,1.022A4.049,4.049,0,0,0,13.847,0a4.156,4.156,0,0,0-4.1,4.207,4.267,4.267,0,0,0,.107.958A11.553,11.553,0,0,1,1.393.769,4.281,4.281,0,0,0,2.662,6.388,4.032,4.032,0,0,1,.8,5.861v.052A4.187,4.187,0,0,0,4.095,10.04a4.023,4.023,0,0,1-1.854.073,4.122,4.122,0,0,0,3.833,2.922,8.1,8.1,0,0,1-5.1,1.8A7.984,7.984,0,0,1,0,14.776a11.4,11.4,0,0,0,6.29,1.891c7.547,0,11.674-6.411,11.674-11.973,0-.181,0-.364-.012-.544A8.464,8.464,0,0,0,20,1.972" fill="#9f9e9c" fill-rule="evenodd"/>
</svg>
